<svg xmlns="http://www.w3.org/2000/svg" viewBox="0 0 24 24">
  <defs>
    <style>
      .a{fill:#f8de40;}
      .b{fill:#864e20;}
      .c{fill:#e7c930;}
    </style>
  </defs>
  <rect class="a" x="1" y="1" width="22" height="22" rx="7.656"/>
  <circle class="b" cx="9" cy="8" r="1.6"/>
  <circle class="b" cx="15" cy="8" r="1.6"/>
  <path class="b" d="M12 13a3 3 0 0 1-2.5-1.5A3 3 0 0 1 12 10a3 3 0 0 1 2.5 1.5A3 3 0 0 1 12 13Z"/>
  <path class="c" d="M23 13a15 15 0 0 1-12.5 6.5c-5.6 0-6.8-1-9.5-2.5a7.5 7.5 0 0 0 8.2 6h6.6a7.5 7.5 0 0 0 8.2-6Z"/>
</svg>
