<svg xmlns="http://www.w3.org/2000/svg" viewBox="0 0 24 24">
  <defs>
    <style>
      .a{fill:#f8de40;}
      .b{fill:#864e20;}
      .c{fill:#e7c930;}
    </style>
  </defs>
  <rect class="a" x="1" y="1" width="22" height="22" rx="7.656"/>
  <circle class="b" cx="7" cy="7" r="1.7"/>
  <circle class="b" cx="17" cy="7" r="1.7"/>
  <path class="b" d="M12 14a2.5 2.5 0 0 1-2-1A2.5 2.5 0 0 1 12 11a2.5 2.5 0 0 1 2 1A2.5 2.5 0 0 1 12 14Z"/>
  <path class="c" d="M23 13a15 15 0 0 1-12.5 6.5c-5.7 0-6.8-1-9.5-2.5a7.5 7.5 0 0 0 8.2 6h6.6a7.5 7.5 0 0 0 8.2-6Z"/>
</svg>
